<?xml version="1.0" encoding="utf-8"?>
<svg viewBox="2.9070000648498535 10.659000396728516 494.1860046386719 67.24199676513672" width="494.1860046386719" height="67.24199676513672" xmlns="http://www.w3.org/2000/svg">
  <defs>
    <linearGradient id="gradient-2" gradientUnits="userSpaceOnUse" x1="335.756" y1="26.163" x2="335.756" y2="104.167" gradientTransform="matrix(-0.107396, 0.857046, -5.807444, -0.540776, 661.836542, -208.238674)">
      <stop offset="0" style="stop-color: rgba(255, 241, 241, 1)"/>
      <stop offset="1" style="stop-color: rgba(255, 139, 139, 1)"/>
    </linearGradient>
  </defs>
  <g transform="matrix(1, 0, 0, 1, 0, 0)">
    <rect x="2.907" y="10.659" width="494.186" height="67.242" style="fill: url(#gradient-2);"/>
    <g transform="matrix(1, 0, 0, 1, 127.951279, 15.410854)">
      <path d="M 143.039 34.512 L 167.039 34.512 L 167.039 58.512 L 143.039 58.512 Z" style="paint-order: stroke;" fill="none"/>
      <path d="M 155.039 36.512 C 150.619 36.512 147.039 37.012 147.039 40.512 L 147.039 50.012 C 147.039 51.942 148.609 53.512 150.539 53.512 L 149.039 55.012 L 149.039 55.512 L 161.039 55.512 L 161.039 55.012 L 159.539 53.512 C 161.469 53.512 163.039 51.942 163.039 50.012 L 163.039 40.512 C 163.039 37.012 159.459 36.512 155.039 36.512 Z M 150.539 51.512 C 149.709 51.512 149.039 50.842 149.039 50.012 C 149.039 49.182 149.709 48.512 150.539 48.512 C 151.369 48.512 152.039 49.182 152.039 50.012 C 152.039 50.842 151.369 51.512 150.539 51.512 Z M 154.039 45.512 L 149.039 45.512 L 149.039 40.512 L 154.039 40.512 L 154.039 45.512 Z M 159.539 51.512 C 158.709 51.512 158.039 50.842 158.039 50.012 C 158.039 49.182 158.709 48.512 159.539 48.512 C 160.369 48.512 161.039 49.182 161.039 50.012 C 161.039 50.842 160.369 51.512 159.539 51.512 Z M 161.039 45.512 L 156.039 45.512 L 156.039 40.512 L 161.039 40.512 L 161.039 45.512 Z" style="paint-order: stroke; fill: rgb(123, 112, 112);"/>
    </g>
    <g transform="matrix(1, 0, 0, 1, 129.596085, 17.107113)">
      <path d="M 173.078 34.027 L 197.078 34.027 L 197.078 58.027 L 173.078 58.027 Z" style="paint-order: stroke;" fill="none"/>
      <path d="M 177.078 50.027 C 177.078 50.907 177.468 51.697 178.078 52.247 L 178.078 54.027 C 178.078 54.577 178.528 55.027 179.078 55.027 L 180.078 55.027 C 180.628 55.027 181.078 54.577 181.078 54.027 L 181.078 53.027 L 189.078 53.027 L 189.078 54.027 C 189.078 54.577 189.528 55.027 190.078 55.027 L 191.078 55.027 C 191.628 55.027 192.078 54.577 192.078 54.027 L 192.078 52.247 C 192.688 51.697 193.078 50.907 193.078 50.027 L 193.078 40.027 C 193.078 36.527 189.498 36.027 185.078 36.027 C 180.658 36.027 177.078 36.527 177.078 40.027 L 177.078 50.027 Z M 180.578 51.027 C 179.748 51.027 179.078 50.357 179.078 49.527 C 179.078 48.697 179.748 48.027 180.578 48.027 C 181.408 48.027 182.078 48.697 182.078 49.527 C 182.078 50.357 181.408 51.027 180.578 51.027 Z M 189.578 51.027 C 188.748 51.027 188.078 50.357 188.078 49.527 C 188.078 48.697 188.748 48.027 189.578 48.027 C 190.408 48.027 191.078 48.697 191.078 49.527 C 191.078 50.357 190.408 51.027 189.578 51.027 Z M 191.078 45.027 L 179.078 45.027 L 179.078 40.027 L 191.078 40.027 L 191.078 45.027 Z" style="paint-order: stroke; fill: rgb(123, 112, 112);"/>
    </g>
    <g transform="matrix(1, 0, 0, 1, 120.289719, 17.107113)">
      <path d="M 245.752 33.543 L 269.752 33.543 L 269.752 57.543 L 245.752 57.543 Z" style="paint-order: stroke;" fill="none"/>
      <path d="M 261.252 39.043 C 262.352 39.043 263.252 38.143 263.252 37.043 C 263.252 35.943 262.352 35.043 261.252 35.043 C 260.152 35.043 259.252 35.943 259.252 37.043 C 259.252 38.143 260.152 39.043 261.252 39.043 Z M 250.752 45.543 C 247.952 45.543 245.752 47.743 245.752 50.543 C 245.752 53.343 247.952 55.543 250.752 55.543 C 253.552 55.543 255.752 53.343 255.752 50.543 C 255.752 47.743 253.552 45.543 250.752 45.543 Z M 250.752 54.043 C 248.852 54.043 247.252 52.443 247.252 50.543 C 247.252 48.643 248.852 47.043 250.752 47.043 C 252.652 47.043 254.252 48.643 254.252 50.543 C 254.252 52.443 252.652 54.043 250.752 54.043 Z M 256.552 44.043 L 258.952 41.643 L 259.752 42.443 C 261.052 43.743 262.752 44.543 264.852 44.543 L 264.852 42.543 C 263.352 42.543 262.152 41.943 261.252 41.043 L 259.352 39.143 C 258.852 38.743 258.352 38.543 257.752 38.543 C 257.152 38.543 256.652 38.743 256.352 39.143 L 253.552 41.943 C 253.152 42.343 252.952 42.843 252.952 43.343 C 252.952 43.943 253.152 44.443 253.552 44.743 L 256.752 47.543 L 256.752 52.543 L 258.752 52.543 L 258.752 46.343 L 256.552 44.043 Z M 264.752 45.543 C 261.952 45.543 259.752 47.743 259.752 50.543 C 259.752 53.343 261.952 55.543 264.752 55.543 C 267.552 55.543 269.752 53.343 269.752 50.543 C 269.752 47.743 267.552 45.543 264.752 45.543 Z M 264.752 54.043 C 262.852 54.043 261.252 52.443 261.252 50.543 C 261.252 48.643 262.852 47.043 264.752 47.043 C 266.652 47.043 268.252 48.643 268.252 50.543 C 268.252 52.443 266.652 54.043 264.752 54.043 Z" style="paint-order: stroke; fill: rgb(123, 112, 112);"/>
    </g>
    <g transform="matrix(1, 0, 0, 1, 126.880875, 17.107113)">
      <path d="M 226.397 38.099 C 226.197 37.509 225.637 37.089 224.977 37.089 L 213.977 37.089 C 213.317 37.089 212.767 37.509 212.557 38.099 L 210.477 44.089 L 210.477 52.089 C 210.477 52.639 210.927 53.089 211.477 53.089 L 212.477 53.089 C 213.027 53.089 213.477 52.639 213.477 52.089 L 213.477 51.089 L 225.477 51.089 L 225.477 52.089 C 225.477 52.639 225.927 53.089 226.477 53.089 L 227.477 53.089 C 228.027 53.089 228.477 52.639 228.477 52.089 L 228.477 44.089 L 226.397 38.099 Z M 213.977 48.089 C 213.147 48.089 212.477 47.419 212.477 46.589 C 212.477 45.759 213.147 45.089 213.977 45.089 C 214.807 45.089 215.477 45.759 215.477 46.589 C 215.477 47.419 214.807 48.089 213.977 48.089 Z M 224.977 48.089 C 224.147 48.089 223.477 47.419 223.477 46.589 C 223.477 45.759 224.147 45.089 224.977 45.089 C 225.807 45.089 226.477 45.759 226.477 46.589 C 226.477 47.419 225.807 48.089 224.977 48.089 Z M 212.477 43.089 L 213.977 38.589 L 224.977 38.589 L 226.477 43.089 L 212.477 43.089 Z" style="paint-order: stroke; fill: rgb(123, 112, 112);"/>
      <path d="M 207.477 32.089 L 231.477 32.089 L 231.477 56.089 L 207.477 56.089 Z" style="paint-order: stroke;" fill="none"/>
    </g>
    <g transform="matrix(1, 0, 0, 1, 73.000526, 18.560602)">
      <path d="M 324.725 30.151 L 348.725 30.151 L 348.725 54.151 L 324.725 54.151 Z" style="paint-order: stroke;" fill="none"/>
      <path d="M 338.225 35.651 C 339.325 35.651 340.225 34.751 340.225 33.651 C 340.225 32.551 339.325 31.651 338.225 31.651 C 337.125 31.651 336.225 32.551 336.225 33.651 C 336.225 34.751 337.125 35.651 338.225 35.651 Z M 334.525 39.051 L 331.725 53.151 L 333.825 53.151 L 335.625 45.151 L 337.725 47.151 L 337.725 53.151 L 339.725 53.151 L 339.725 45.651 L 337.625 43.651 L 338.225 40.651 C 339.525 42.151 341.525 43.151 343.725 43.151 L 343.725 41.151 C 341.825 41.151 340.225 40.151 339.425 38.751 L 338.425 37.151 C 338.025 36.551 337.425 36.151 336.725 36.151 C 336.425 36.151 336.225 36.251 335.925 36.251 L 330.725 38.451 L 330.725 43.151 L 332.725 43.151 L 332.725 39.751 L 334.525 39.051" style="paint-order: stroke; fill: rgb(123, 112, 112);"/>
    </g>
    <g transform="matrix(1, 0, 0, 1, 91.422485, 24.859051)">
      <path d="M 147.884 24.822 L 171.884 24.822 L 171.884 48.822 L 147.884 48.822 Z" style="paint-order: stroke;" fill="none"/>
      <path d="M 167.884 45.822 C 166.494 45.822 165.104 45.352 163.884 44.502 C 161.444 46.212 158.324 46.212 155.884 44.502 C 154.664 45.352 153.274 45.822 151.884 45.822 L 149.884 45.822 L 149.884 47.822 L 151.884 47.822 C 153.264 47.822 154.624 47.472 155.884 46.832 C 158.404 48.122 161.364 48.122 163.884 46.832 C 165.144 47.482 166.504 47.822 167.884 47.822 L 169.884 47.822 L 169.884 45.822 L 167.884 45.822 Z M 151.834 43.822 L 151.884 43.822 C 153.484 43.822 154.904 42.942 155.884 41.822 C 156.864 42.942 158.284 43.822 159.884 43.822 C 161.484 43.822 162.904 42.942 163.884 41.822 C 164.864 42.942 166.284 43.822 167.884 43.822 L 167.934 43.822 L 169.824 37.142 C 169.904 36.882 169.884 36.602 169.764 36.362 C 169.644 36.122 169.424 35.942 169.164 35.862 L 167.884 35.442 L 167.884 30.822 C 167.884 29.722 166.984 28.822 165.884 28.822 L 162.884 28.822 L 162.884 25.822 L 156.884 25.822 L 156.884 28.822 L 153.884 28.822 C 152.784 28.822 151.884 29.722 151.884 30.822 L 151.884 35.442 L 150.594 35.862 C 150.334 35.942 150.114 36.122 149.994 36.362 C 149.874 36.602 149.844 36.882 149.934 37.142 L 151.834 43.822 Z M 153.884 30.822 L 165.884 30.822 L 165.884 34.792 L 159.884 32.822 L 153.884 34.792 L 153.884 30.822 Z" style="paint-order: stroke; fill: rgb(123, 112, 112);"/>
    </g>
    <g transform="matrix(1, 0, 0, 1, -60.224808, -1.453488)">
      <path d="M 409.512 14.647 L 433.512 14.647 L 433.512 38.647 L 409.512 38.647 Z" style="paint-order: stroke;" fill="none"/>
      <path d="M 421.512 16.647 C 415.992 16.647 411.512 21.127 411.512 26.647 C 411.512 32.167 415.992 36.647 421.512 36.647 C 427.032 36.647 431.512 32.167 431.512 26.647 C 431.512 21.127 427.032 16.647 421.512 16.647 Z M 422.512 31.647 L 420.512 31.647 L 420.512 25.647 L 422.512 25.647 L 422.512 31.647 Z M 422.512 23.647 L 420.512 23.647 L 420.512 21.647 L 422.512 21.647 L 422.512 23.647 Z" style="paint-order: stroke; fill: rgb(123, 112, 112);"/>
    </g>
    <g transform="matrix(1, 0, 0, 1, -38.664978, 1.21103)">
      <path d="M 373.764 14.74 L 359.764 14.74 C 358.664 14.74 357.764 15.64 357.764 16.74 L 357.764 30.74 C 357.764 31.84 358.664 32.74 359.764 32.74 L 373.764 32.74 C 374.864 32.74 375.764 31.84 375.764 30.74 L 375.764 16.74 C 375.764 15.64 374.864 14.74 373.764 14.74 Z M 363.764 28.74 L 361.764 28.74 L 361.764 21.74 L 363.764 21.74 L 363.764 28.74 Z M 367.764 28.74 L 365.764 28.74 L 365.764 18.74 L 367.764 18.74 L 367.764 28.74 Z M 371.764 28.74 L 369.764 28.74 L 369.764 24.74 L 371.764 24.74 L 371.764 28.74 Z" style="paint-order: stroke; fill: rgb(123, 112, 112);"/>
      <path d="M 354.764 11.74 L 378.764 11.74 L 378.764 35.74 L 354.764 35.74 Z" style="paint-order: stroke;" fill="none"/>
    </g>
    <g transform="matrix(1, 0, 0, 1, -19.52713, 6.055992)">
      <path d="M 317.938 21.38 L 317.148 21.38 L 316.868 21.11 C 317.848 19.97 318.438 18.49 318.438 16.88 C 318.438 13.29 315.528 10.38 311.938 10.38 C 308.348 10.38 305.438 13.29 305.438 16.88 C 305.438 20.47 308.348 23.38 311.938 23.38 C 313.548 23.38 315.028 22.79 316.168 21.81 L 316.438 22.09 L 316.438 22.88 L 321.438 27.87 L 322.928 26.38 L 317.938 21.38 Z M 311.938 21.38 C 309.448 21.38 307.438 19.37 307.438 16.88 C 307.438 14.39 309.448 12.38 311.938 12.38 C 314.428 12.38 316.438 14.39 316.438 16.88 C 316.438 19.37 314.428 21.38 311.938 21.38 Z" style="fill: rgb(123, 112, 112);"/>
      <path d="M 302.438 7.38 L 326.438 7.38 L 326.438 31.38 L 302.438 31.38 Z" fill="none"/>
    </g>
    <line style="stroke: rgb(0, 0, 0); fill: rgb(123, 112, 112);" x1="231.926" y1="41.45" x2="424.756" y2="41.45"/>
  </g>
</svg>