<?xml version="1.0" encoding="utf-8"?>
<svg viewBox="5.486999988555908 15.302000045776367 155.0399932861328 76.35199737548828" width="155.0399932861328" height="76.35199737548828" xmlns="http://www.w3.org/2000/svg">
  <g transform="matrix(1, 0, 0, 1, 0, 0)">
    <rect x="5.487" y="15.302" width="155.04" height="76.352" style="fill: rgb(216, 231, 245);"/>
    <path d="M 111.871 41.815 L 135.871 41.815 L 135.871 65.815 L 111.871 65.815 Z" fill="none"/>
    <path d="M 123.871 43.815 C 118.351 43.815 113.871 48.295 113.871 53.815 C 113.871 59.335 118.351 63.815 123.871 63.815 C 129.391 63.815 133.871 59.335 133.871 53.815 C 133.871 48.295 129.391 43.815 123.871 43.815 Z M 124.871 58.815 L 122.871 58.815 L 122.871 52.815 L 124.871 52.815 L 124.871 58.815 Z M 124.871 50.815 L 122.871 50.815 L 122.871 48.815 L 124.871 48.815 L 124.871 50.815 Z"/>
    <path d="M 26.662 43.276 L 50.662 43.276 L 50.662 67.276 L 26.662 67.276 Z" fill="none"/>
    <path d="M 46.662 45.276 L 30.662 45.276 C 29.562 45.276 28.672 46.176 28.672 47.276 L 28.662 65.276 L 32.662 61.276 L 46.662 61.276 C 47.762 61.276 48.662 60.376 48.662 59.276 L 48.662 47.276 C 48.662 46.176 47.762 45.276 46.662 45.276 Z M 39.662 57.276 L 37.662 57.276 L 37.662 55.276 L 39.662 55.276 L 39.662 57.276 Z M 39.662 53.276 L 37.662 53.276 L 37.662 49.276 L 39.662 49.276 L 39.662 53.276 Z"/>
    <path d="M 90.182 19.772 L 76.182 19.772 C 75.082 19.772 74.182 20.672 74.182 21.772 L 74.182 35.772 C 74.182 36.872 75.082 37.772 76.182 37.772 L 90.182 37.772 C 91.282 37.772 92.182 36.872 92.182 35.772 L 92.182 21.772 C 92.182 20.672 91.282 19.772 90.182 19.772 Z M 80.182 33.772 L 78.182 33.772 L 78.182 26.772 L 80.182 26.772 L 80.182 33.772 Z M 84.182 33.772 L 82.182 33.772 L 82.182 23.772 L 84.182 23.772 L 84.182 33.772 Z M 88.182 33.772 L 86.182 33.772 L 86.182 29.772 L 88.182 29.772 L 88.182 33.772 Z"/>
    <path d="M 71.182 16.772 L 95.182 16.772 L 95.182 40.772 L 71.182 40.772 Z" fill="none"/>
    <path d="M 79.929 85.918 L 79.929 79.918 L 83.929 79.918 L 83.929 85.918 L 88.929 85.918 L 88.929 77.918 L 91.929 77.918 L 81.929 68.918 L 71.929 77.918 L 74.929 77.918 L 74.929 85.918 Z"/>
    <path d="M 69.929 65.918 L 93.929 65.918 L 93.929 89.918 L 69.929 89.918 Z" fill="none"/>
  </g>
</svg>