<?xml version="1.0" encoding="utf-8"?>
<svg viewBox="5.486999988555908 15.302000045776367 155.0399932861328 76.35199737548828" width="155.0399932861328" height="76.35199737548828" xmlns="http://www.w3.org/2000/svg">
  <rect x="5.487" y="15.302" width="155.04" height="76.352" style="fill: rgb(216, 231, 245);"/>
  <path d="M 111.871 41.815 L 135.871 41.815 L 135.871 65.815 L 111.871 65.815 Z" fill="none"/>
  <path d="M 123.871 43.815 C 118.351 43.815 113.871 48.295 113.871 53.815 C 113.871 59.335 118.351 63.815 123.871 63.815 C 129.391 63.815 133.871 59.335 133.871 53.815 C 133.871 48.295 129.391 43.815 123.871 43.815 Z M 124.871 58.815 L 122.871 58.815 L 122.871 52.815 L 124.871 52.815 L 124.871 58.815 Z M 124.871 50.815 L 122.871 50.815 L 122.871 48.815 L 124.871 48.815 L 124.871 50.815 Z"/>
  <path d="M 26.662 43.276 L 50.662 43.276 L 50.662 67.276 L 26.662 67.276 Z" fill="none"/>
  <path d="M 46.662 45.276 L 30.662 45.276 C 29.562 45.276 28.672 46.176 28.672 47.276 L 28.662 65.276 L 32.662 61.276 L 46.662 61.276 C 47.762 61.276 48.662 60.376 48.662 59.276 L 48.662 47.276 C 48.662 46.176 47.762 45.276 46.662 45.276 Z M 39.662 57.276 L 37.662 57.276 L 37.662 55.276 L 39.662 55.276 L 39.662 57.276 Z M 39.662 53.276 L 37.662 53.276 L 37.662 49.276 L 39.662 49.276 L 39.662 53.276 Z"/>
  <path d="M 90.182 19.772 L 76.182 19.772 C 75.082 19.772 74.182 20.672 74.182 21.772 L 74.182 35.772 C 74.182 36.872 75.082 37.772 76.182 37.772 L 90.182 37.772 C 91.282 37.772 92.182 36.872 92.182 35.772 L 92.182 21.772 C 92.182 20.672 91.282 19.772 90.182 19.772 Z M 80.182 33.772 L 78.182 33.772 L 78.182 26.772 L 80.182 26.772 L 80.182 33.772 Z M 84.182 33.772 L 82.182 33.772 L 82.182 23.772 L 84.182 23.772 L 84.182 33.772 Z M 88.182 33.772 L 86.182 33.772 L 86.182 29.772 L 88.182 29.772 L 88.182 33.772 Z"/>
  <path d="M 71.182 16.772 L 95.182 16.772 L 95.182 40.772 L 71.182 40.772 Z" fill="none"/>
  <path d="M 87.374 78.624 L 86.584 78.624 L 86.304 78.354 C 87.284 77.214 87.874 75.734 87.874 74.124 C 87.874 70.534 84.964 67.624 81.374 67.624 C 77.784 67.624 74.874 70.534 74.874 74.124 C 74.874 77.714 77.784 80.624 81.374 80.624 C 82.984 80.624 84.464 80.034 85.604 79.054 L 85.874 79.334 L 85.874 80.124 L 90.874 85.114 L 92.364 83.624 L 87.374 78.624 Z M 81.374 78.624 C 78.884 78.624 76.874 76.614 76.874 74.124 C 76.874 71.634 78.884 69.624 81.374 69.624 C 83.864 69.624 85.874 71.634 85.874 74.124 C 85.874 76.614 83.864 78.624 81.374 78.624 Z"/>
  <path d="M 71.874 64.624 L 95.874 64.624 L 95.874 88.624 L 71.874 88.624 Z" fill="none"/>
</svg>